<?xml version="1.0" encoding="utf-8"?>
<!-- Generator: Adobe Illustrator 22.1.0, SVG Export Plug-In . SVG Version: 6.00 Build 0)  -->
<svg version="1.1" id="Capa_1" xmlns="http://www.w3.org/2000/svg" xmlns:xlink="http://www.w3.org/1999/xlink" x="0px" y="0px"
	 width="204.7px" height="204.7px" viewBox="0 0 204.7 204.7" style="enable-background:new 0 0 204.7 204.7;" xml:space="preserve"
	>
<style type="text/css">
	.st0{fill:#CCCCCC;}
</style>
<title>Asset 13</title>
<g>
	<g>
		<path class="st0" d="M201.8,67c-0.3,1.4-1.3,2.5-2.3,3.7c-2.4,2.9-4.8,5.7-7.3,8.6c-1.5,1.8-3,3.5-4.6,5.2l-2,2.3l0.4,1
			c0.1,0.3,0.2,0.5,0.4,0.8l2.5,4.7c1.3,2.4,2.5,4.7,3.7,7.1l0.4,0.7c0.5,1.1,1.1,2.2,1.6,3.3c0.9,2.2,0.3,3.8-0.3,4.7
			c-0.9,1.4-2.6,2.2-4.2,2.2c-0.9,0-1.9,0-2.7-0.3c-3.3-1-6.5-2-9.7-3l-2.8-0.9l-1.1-6.5c2,0.5,3.8,1,5.7,1.5c2,0.5,3.9,1.1,5.8,1.6
			l0.7,0.2l0.5-0.6c0.8-1,0.2-2-0.1-2.5c-1.1-2.1-2.3-4.3-3.5-6.5l-3.7-7.1c0-0.1-0.1-0.2-0.1-0.2c0-0.1,0.1-0.2,0.2-0.3l11.7-13.8
			c0.2-0.2,0.3-0.4,0.5-0.7l0.8-1.8l-2.1,0.1c-0.2,0-0.5,0-0.7,0l-16.7,4.4c-0.2,0.1-0.3,0.1-0.4,0.1c0,0-0.1-0.2-0.2-0.4l-7.3-12.1
			c-0.2-0.4-0.4-0.7-0.6-1.1l-1.1-1.9l-1,1c-0.9,0.9-1,1.9-1,2.6c0,0.1,0,0.3,0,0.5c-1,5.1-1.9,10.3-2.7,15.4l1.1,0.2H158l-12.3,3.8
			c-1.4,0.5-2.8,0.9-4.2,1.4c-0.2,0-0.5,0.1-0.8,0.3l-3.4,1.2l2.7,1.1c2.8,1.1,5.5,2.2,8.1,3.2c1.4,0.5,2.8,1.1,4.2,1.6
			c-1.8,1.3-5,3.4-7.2,4.7l-8.6-3.8c-0.8-0.4-1.6-0.7-2.4-1.1c-2.1-1.1-3.4-2.3-4.1-4c-0.9-2.2,0.3-3.9,1.2-4.6
			c1.3-1.2,3-1.8,4.8-2.3l3.5-1.1c4.1-1.3,8.1-2.6,12.2-3.8c1.3-0.4,2.1-1.2,2.3-2.6c0.3-2,0.7-3.9,1-5.8l0.9-4.7
			c0.3-1.8,0.6-3.6,1-5.3c0.5-2.5,1.5-4.2,2.9-5.4c1.6-1.4,3.3-1.5,5.1-0.1c1.2,1,2,2.3,2.9,3.7l0.2,0.3c1.7,2.8,3.4,5.6,5.1,8.4
			l1.8,3.1c0.9,1.4,1.6,1.5,3.1,1.1l4.3-1.1c4.9-1.3,9.8-2.6,14.7-3.9c1.5-0.4,2.7-0.3,3.8,0.3C201.3,64.2,202.3,65,201.8,67z"/>
	</g>
	<g>
		<path class="st0" d="M75.1,118.3c-1.1-4.8-3.9-8.4-8.2-10.5c-3.4-1.7-7.4-2.1-11.5-1.4c-4.3,0.8-7.4,2.2-10.4,4.9
			c-3,2.7-4.6,5.1-5.8,9.6c-0.6,2-1.3,8-1.4,8.7c-0.3,1.9-0.5,3.7-0.7,5.6l-1.8,13.4c-0.1,1-0.3,2-0.4,3.1c-0.1,0.7-0.1,1.4-0.2,2
			h6.1l2.4-15.7c0,0,1.2,1.6,3.1,2.7c3.3,1.8,7.2,2.3,10.3,2.2c8.1-0.3,13.9-4.1,17.1-10.6C75.2,128.9,76.2,122.9,75.1,118.3z
			 M68.8,126c-1.1,5.7-4.2,9.4-10.6,10.7c-8,1.6-13.8-4.3-13.5-10.4c0.3-6.3,3.1-11.5,10.2-13.5c3.6-1,7-0.5,9.8,1.5
			C68.5,116.8,69.7,121.4,68.8,126z"/>
	</g>
	<g>
		<path class="st0" d="M31.3,121.4c1.3,2.3,1.8,4.3,1.6,6.3c-0.5,4.5-2.3,8.2-5.4,10.9c-2.9,2.6-6,4-9.5,4.4
			c-2.4,0.3-4.5,0.3-6.4-0.1c-3.8-0.8-6.5-3.1-8.2-7.1c-0.3-0.5-0.5-1.1-0.7-1.7l7.1-3.8l0.3,0.5c0.4,0.7,0.8,1.5,1.2,2.2
			c2.4,3.9,6.9,4.2,10.2,2.5c2.3-1.2,3.6-2.9,3.9-5.1c0.2-1.6-0.2-3.1-1.2-4.5c-0.8-1.1-1.8-2.2-2.8-3.3l-1-1
			c-2.2-2.3-4.6-4.7-6.6-7.3c-1.1-1.5-1.9-2.8-2.4-4.1c-1.1-3.1-0.8-6.2,0.9-9.2c2.6-4.4,6.5-7.1,11.6-8.1c2.1-0.4,4.1-0.3,6.1,0.3
			c2.3,0.6,4.3,2,6,4c0.5,0.6,1,1.3,1.6,2l0.1,0.2l-6.5,4.8c-0.3-0.4-0.5-0.8-0.8-1.2c-1.3-1.8-3-3-5.1-3.4
			c-2.4-0.5-5.5,0.9-6.6,2.9c-1,1.7-0.9,3.5,0.3,5.1c0.9,1.1,1.8,2.2,2.6,3.2c0.9,1,1.8,1.9,2.8,2.8c1,1,1.9,2,2.9,3l0.3,0.3
			C29.1,118.3,30.4,119.7,31.3,121.4z"/>
	</g>
	<g>
		<path class="st0" d="M117.8,125.8c-0.1,0.5-0.2,1-0.2,1.6c-0.1,1-0.2,2-0.4,3l-0.6,4.1c-0.3,2.5-0.6,4.9-1,7.6h-6
			c0-0.6,0.1-1.2,0.2-1.8l0.5-4.3c0.5-3.3,0.9-6.6,1.3-9.9c0.3-2.9-0.1-5.6-1.2-8.1c-1.3-2.8-3.5-4.6-6.5-5.3
			c-3.4-0.8-7.1-0.1-10.2,1.8c-3.2,2-5.4,5.2-6.2,8.8c-0.7,3.2-0.2,6.1,1.4,8.6c2.1,3.1,4.9,4.6,8.5,4.8c3.1,0.1,6-0.7,8.4-2.5
			c-0.1,1.1-0.3,2.3-0.4,3.4c0,0.4-0.1,0.7-0.1,1c-0.1,0.7-0.2,1.4-0.2,2c0,0.5-0.1,0.7-0.7,0.9c-2.2,0.8-4.2,1.3-6.1,1.4
			c-4.1,0.3-7.5-0.6-10.4-2.6c-3.8-2.6-6.1-6.2-6.7-10.8c-0.8-5.4,0.7-10.4,4.4-15.1c2.9-3.7,6.6-6.2,11.2-7.5
			c1.9-0.5,3.7-0.8,5.5-0.8c2.5,0,4.8,0.5,7.1,1.6c5,2.5,7.9,6.4,8.7,12.2C118.3,121.8,118.1,123.7,117.8,125.8z"/>
	</g>
	<g>
		<path class="st0" d="M176.1,142c-2.3,0.1-6,0.1-8.4,0l-14.9-22.5l-0.4,3c-0.3,2.3-0.5,4.5-0.8,6.7c-0.6,4.4-1.1,8.6-1.7,12.8h-7
			c0.1-0.6,0.1-1.2,0.2-1.8c0.5-4.2,1.1-8.4,1.6-12.6c0.2-1.2,0.4-2.4,0.5-3.6l0.5-3.2c0.1-1,0.3-1.9,0.4-2.9l1.6-12.4
			c0.2-1.6,0.5-3.3,0.6-4.9c0-0.4,0.1-0.5,0.3-0.6l7.5-4.8l-3.1,23.5l16.2-17.9l1.1,6.2L160,117.9l-0.5,0.8L176.1,142z"/>
	</g>
	<g>
		<path class="st0" d="M141,107c-0.1,1-0.2,2-0.4,3c-0.1,1.1-0.3,2.3-0.5,3.5h-4.1c-2.4,0-4,1.3-4.4,3.6c-0.2,1.1-0.4,2.3-0.5,3.5
			l-0.5,3.5c-0.2,1.7-0.5,3.5-0.7,5.2c-0.3,2.3-0.6,4.7-0.9,7.1l-0.6,4.7c0,0.3-0.1,0.6-0.1,0.9H122l0-0.1c0.1-1,0.2-1.9,0.3-2.8
			c0.1-1,0.3-2.1,0.5-3.2c0.1-1.1,0.3-2.2,0.5-3.3c0.3-2.5,0.7-5,1-7.5l0.7-5.6c0.2-1.2,0.3-2.4,0.5-3.5c0.9-4.7,4.6-8.2,9.6-8.9
			c0.8-0.1,1.6-0.1,2.5,0c0.4,0,0.8,0,1.3,0H141z"/>
	</g>
</g>
</svg>
